#!OML:ASF F:\VICON\USERDATA\INSTALL\rory3\rory3.ASF
:FULLY-SPECIFIED
:DEGREES
19
root 0.3679510743258033 18.925783424699922 -13.87949023219048 3.438173491755766 3.7625777757779653 -4.263972511158475
lfemur -29.27809365277833 -3.458915265863791 -17.788703218186146
ltibia 20.315812173235997
lfoot 7.192908397069068 -7.544762386738753
ltoes -27.097786094922924
rfemur 11.610085668254625 8.844176523099893 34.483889999526134
rtibia 54.3980017138156
rfoot 21.83229017085814 -12.439087433435574
rtoes 20.030888955921935
lowerback 13.769704165769406 1.9954808978770728 5.963067144842613
upperback -1.7726977002254543 3.8350287149071685 1.6185980900024426
thorax -9.39448568060842 1.5732896842236097 -2.4388083849792794
lowerneck -19.672894012221203 -6.112816635096543 -2.209761474919582
upperneck 11.464484782105952 -8.286686722812354 3.9213357213048
head 6.9605338063022995 -3.7192465020773775 0.6646600851505817
lclavicle -1.544432592472505e-15 -3.296202364162074e-15
lhumerus -68.00388553627305 -4.105066977777918 86.3267085863412
lradius 110.6480024253245
lwrist 29.597304473329977
lhand -21.358213465786076 4.418955820691117
lfingers 7.12502
lthumb 5.0284666850493585 34.339296002272505
rclavicle -1.544432592472505e-15 -3.296202364162074e-15
rhumerus -41.16740646181423 18.829289694841155 -95.91120536157186
rradius 124.44998512318439
rwrist -23.44759637353017
rhand -15.404414143982443 43.78068721818231
rfingers 7.12502
rthumb 10.774686041872478 14.077086856321822
20
root 0.38131160700648037 18.818285273582244 -12.887690775909231 2.8068871536903837 4.3718366235336905 -3.6678150416167026
lfemur -27.168094911313425 -4.381093399908548 -18.7381016876035
ltibia 18.764212611795635
lfoot 8.571757768012619 -9.138510226418488
ltoes -19.526494087406327
rfemur 9.034457382014958 7.506419774135232 33.243492192453644
rtibia 63.039098769424015
rfoot 22.63738969180802 -13.317586031411787
rtoes 17.44659044488526
lowerback 14.228901883713503 1.8053923090035977 5.381399118363218
upperback -1.4729115368331276 3.4747804903452435 1.361510146385356
thorax -9.371605917565843 1.428031327518129 -2.330329081679095
lowerneck -19.386495741708885 -6.038397143841797 -2.241740605576238
upperneck 10.408690375659685 -8.170847257278847 4.1771939650699315
head 6.58000925470141 -3.6659769827929702 0.78891215770902
lclavicle -1.5444324506298544e-15 -3.296202317957674e-15
lhumerus -66.75198594357371 -4.714655566847682 86.37970865209725
lradius 110.462002713856
lwrist 29.67930427369692
lhand -22.283009891165985 4.685274960996354
lfingers 7.12502
lthumb 4.135460064153263 34.62489493114715
rclavicle -1.5444324506298544e-15 -3.296202317957674e-15
rhumerus -41.980205803160445 19.162889176767116 -97.40820135896554
rradius 121.89598765640241
rwrist -19.552710713359268
rhand -20.256592187964696 40.632596460794225
rfingers 7.12502
rthumb 6.092097851988063 10.740196667122518
21
root 0.4739803356676916 18.5612108437408 -10.156217330332677 2.7824187916121215 3.099700233536821 -1.3860630246725165
lfemur -22.630550623308153 -3.455314907529523 -22.504433756891498
ltibia 30.06764367763766
lfoot 4.0361900379321 -8.169733968261927
ltoes -15.722800453240959
rfemur 1.6779591289888227 3.0632011782766764 29.92266314576233
rtibia 76.17029039061994
rfoot 17.935126197986552 -9.902362571158628
rtoes 14.553784690889527
lowerback 14.02302220802797 1.8826849613571186 3.9304877842965613
upperback -1.6010567829425635 3.2252378443794827 0.399176083617627
thorax -9.527901035164966 1.4708577855544684 -2.047310574309647
lowerneck -18.673708627353395 -6.2096996004424145 -2.1726292824498317
upperneck 10.745625186126937 -7.618608869274553 4.092511101896749
head 6.525200079983945 -3.5319636042685327 0.9566049085706165
lclavicle -1.5429690153049984e-15 -3.305692474193165e-15
lhumerus -64.18658929443414 -3.989313027033485 85.29058188343741
lradius 111.90126513215424
lwrist 30.05397997544966
lhand -23.41393081843697 3.8251807261371464
lfingers 7.12502
lthumb 3.215682221209594 34.004306763000805
rclavicle -1.5438806189324896e-15 -3.295870201491226e-15
rhumerus -45.08683578578123 17.442452322275912 -97.15991997555636
rradius 119.60069763467736
rwrist -20.03650822042433
rhand -18.752387026653725 36.84872386733261
rfingers 7.12502
rthumb 7.098442221469794 6.326004890736321
22
root 0.5372550014568896 18.465798240672953 -9.052184541495961 2.658286040109828 1.944109689371484 -1.1147708380541066
lfemur -18.471997503239482 -2.941056446938135 -24.665031187466244
ltibia 34.197688071310495
lfoot 1.5241304625567471 -7.236499873134116
ltoes -12.923801813424047
rfemur -4.969989621872996 -0.42844505461196425 28.964630241618263
rtibia 90.76769852476656
rfoot 17.182898492488327 -8.382793027957595
rtoes 19.34720989879919
lowerback 14.033780599672651 1.8031343026187678 2.9981706080254797
upperback -1.4961429629730327 2.939257869462594 -0.20569100211198976
thorax -9.591962334385181 1.4018587341186048 -1.6873094943187645
lowerneck -18.301849737233415 -6.178439951907292 -2.1697494362722907
upperneck 10.357568542148254 -7.058125383645653 4.012563598884029
head 6.463471215689429 -3.4527890592046644 1.0408965308618796
lclavicle -1.5429737132213936e-15 -3.3056657366278306e-15
lhumerus -61.788850833287015 -3.924060770542887 84.89095554684579
lradius 113.89603328859911
lwrist 30.693377966529784
lhand -23.663740371065934 3.8836485106071135
lfingers 7.12502
lthumb 2.871325882038681 33.986208683353695
rclavicle -1.5438907428530713e-15 -3.2958775144418378e-15
rhumerus -47.74664550094728 15.445956099847276 -96.48268668937439
rradius 117.93321782917468
rwrist -21.618734501184942
rhand -17.403101440927305 37.72183477715272
rfingers 7.12502
rthumb 8.622011098930544 7.921344146093382
